<svg width="32" height="32" viewBox="0 0 32 32" fill="none" xmlns="http://www.w3.org/2000/svg">
<path d="M4.87145 25.2382L3.26345 13.6845C3.17812 13.1443 3.30978 12.6537 3.65845 12.2128C4.00712 11.7717 4.45156 11.5084 4.99178 11.4228L6.85845 24.9615C6.87556 25.0726 6.929 25.1645 7.01878 25.2372C7.10856 25.3096 7.209 25.3374 7.32012 25.3205L19.4074 23.7048H25.3201C25.1934 24.0862 24.981 24.4079 24.6828 24.6702C24.3846 24.9326 24.0243 25.0929 23.6021 25.1512L7.52245 27.2868C6.866 27.3808 6.28567 27.2271 5.78145 26.8255C5.27723 26.4237 4.97389 25.8946 4.87145 25.2382ZM10.8201 20.8638C10.1466 20.8638 9.57645 20.6305 9.10978 20.1638C8.64312 19.6972 8.40978 19.1271 8.40978 18.4535V7.07684C8.40978 6.40328 8.64312 5.83317 9.10978 5.3665C9.57645 4.89984 10.1466 4.6665 10.8201 4.6665H26.2558C26.9293 4.6665 27.4994 4.89984 27.9661 5.3665C28.4328 5.83317 28.6661 6.40328 28.6661 7.07684V18.4535C28.6661 19.1271 28.4328 19.6972 27.9661 20.1638C27.4994 20.6305 26.9293 20.8638 26.2558 20.8638H10.8201ZM10.8201 18.8638H26.2558C26.3756 18.8638 26.4739 18.8254 26.5508 18.7485C26.6277 18.6716 26.6661 18.5733 26.6661 18.4535V7.07684C26.6661 6.95706 26.6277 6.85873 26.5508 6.78184C26.4739 6.70495 26.3756 6.6665 26.2558 6.6665H10.8201C10.7003 6.6665 10.602 6.70495 10.5251 6.78184C10.4482 6.85873 10.4098 6.95706 10.4098 7.07684V18.4535C10.4098 18.5733 10.4482 18.6716 10.5251 18.7485C10.602 18.8254 10.7003 18.8638 10.8201 18.8638ZM13.5378 11.6665H23.5378V9.6665H13.5378V11.6665ZM13.5378 15.7692H19.5378V13.7692H13.5378V15.7692Z" fill="#1F1F1F"/>
</svg>
